# Blender v2.79 (sub 0) OBJ File: ''
# www.blender.org
mtllib forest.mtl
o Cylinder
v 0.015674 4.350267 -0.253986
v 0.019167 5.110935 0.022685
v 0.028745 5.110935 0.026171
v 0.199847 4.350268 -0.186952
v 0.033842 5.110935 0.034998
v 0.292234 4.286942 -0.023413
v 0.032072 5.110935 0.045036
v 0.263809 4.350267 0.175798
v 0.024263 5.110935 0.051588
v 0.113670 4.350267 0.301780
v 0.014070 5.110935 0.051588
v -0.087932 4.286942 0.295584
v 0.006262 5.110935 0.045036
v -0.232462 4.350267 0.175798
v 0.004492 5.110935 0.034998
v -0.266496 4.350267 -0.017217
v 0.009589 5.110935 0.026171
v -0.174109 4.286942 -0.193148
v -0.005440 1.074458 -0.939428
v 0.637348 1.074458 -0.705472
v 0.979368 0.880381 -0.113076
v 0.860586 0.880381 0.560572
v 0.336580 1.074457 1.000265
v -0.353069 1.011132 0.994068
v -0.871465 0.880381 0.560572
v -0.990247 0.880381 -0.113076
v -0.653837 0.817054 -0.711668
v -1.162461 0.829048 -0.150182
v -0.862932 1.430514 -0.094124
v -0.569643 1.367188 -0.618026
v -0.766733 0.765722 -0.851516
v -0.002290 1.430514 -0.816288
v -0.006855 0.829048 -1.119851
v -1.023078 0.829048 0.640299
v -0.759126 1.430514 0.494589
v -0.413802 0.765721 1.150053
v -0.306797 1.367188 0.872648
v 0.394483 0.829047 1.156250
v 0.296607 1.430514 0.878845
v 1.009368 0.829048 0.640300
v 0.754545 1.430514 0.494589
v 1.143143 0.765722 -0.156378
v 0.858351 1.430514 -0.094124
v 0.747414 0.829048 -0.845319
v 0.559453 1.430514 -0.611830
v -0.470645 3.576763 -0.047718
v -0.162981 4.400359 0.010068
v -0.106769 4.337031 -0.103204
v -0.309076 3.513436 -0.343475
v 0.015024 4.400359 -0.139296
v 0.010725 3.576763 -0.451635
v -0.412585 3.576763 0.281558
v -0.141511 4.400359 0.131830
v -0.162062 3.513437 0.490282
v -0.052405 4.337031 0.205109
v 0.177903 3.576763 0.496478
v 0.076845 4.400359 0.211305
v 0.434034 3.576763 0.281558
v 0.171559 4.400359 0.131830
v 0.486486 3.513436 -0.053915
v 0.193029 4.400359 0.010068
v 0.324917 3.576763 -0.337279
v 0.131209 4.400359 -0.097008
v 0.005286 2.726600 -0.671042
v 0.010529 3.629310 -0.315061
v 0.242392 3.629310 -0.230669
v 0.463775 2.726600 -0.504165
v 0.365764 3.629310 -0.016983
v 0.702124 2.663273 -0.087815
v 0.322917 3.629310 0.226012
v 0.623007 2.726600 0.398883
v 0.133901 3.629310 0.384616
v 0.249243 2.726599 0.712509
v -0.118452 3.565984 0.378420
v -0.244281 2.663274 0.706312
v -0.301860 3.629310 0.226012
v -0.612436 2.726600 0.398883
v -0.344706 3.629310 -0.016983
v -0.697161 2.726600 -0.081619
v -0.458813 2.663274 -0.510362
v -0.226943 3.565983 -0.236866
v -0.864248 1.962745 -0.105654
v -0.545192 2.778662 -0.046827
v -0.359524 2.715335 -0.384325
v -0.569569 1.899419 -0.631965
v 0.005569 2.778662 -0.508971
v 0.000399 1.962745 -0.831178
v -0.759959 1.962746 0.485799
v -0.478762 2.778662 0.329916
v -0.305499 1.899418 0.865646
v -0.191317 2.715334 0.569622
v 0.300687 1.962746 0.871843
v 0.196847 2.778661 0.575818
v 0.760756 1.962745 0.485799
v 0.489901 2.778662 0.329917
v 0.859436 1.899419 -0.111850
v 0.556331 2.778662 -0.046827
v 0.564756 1.962746 -0.625769
v 0.365054 2.778662 -0.378129
v -0.003388 1.370960 -0.997131
v 0.001149 2.020419 -0.681816
v 0.474390 2.020420 -0.509570
v 0.669916 1.370961 -0.752068
v 0.726197 2.020419 -0.073428
v 1.022565 1.307634 -0.137744
v 0.638746 2.020420 0.422534
v 0.903752 1.370960 0.574081
v 0.252955 2.020420 0.746250
v 0.354870 1.370960 1.034648
v -0.256267 1.957093 0.740054
v -0.367254 1.307633 1.028452
v -0.636448 2.020420 0.422534
v -0.910528 1.370960 0.574081
v -0.723899 2.020419 -0.073428
v -1.034949 1.370960 -0.131548
v -0.682301 1.307634 -0.758265
v -0.477702 1.957093 -0.515766
v -0.018886 0.569511 -0.264436
v -0.018886 1.163740 -0.373037
v 0.231064 1.163740 -0.282063
v 0.161257 0.569511 -0.198870
v 0.364060 1.163740 -0.051708
v 0.257109 0.569511 -0.032850
v 0.317871 1.163740 0.210242
v 0.223820 0.569511 0.155942
v 0.114110 1.163740 0.381218
v 0.076966 0.569511 0.279167
v -0.151881 1.163740 0.381218
v -0.114738 0.569511 0.279166
v -0.355642 1.163740 0.210242
v -0.261591 0.569511 0.155942
v -0.401831 1.163740 -0.051708
v -0.294880 0.569511 -0.032850
v -0.268836 1.163740 -0.282063
v -0.199028 0.569511 -0.198870
v -0.018886 -0.011706 -0.373037
v 0.231064 -0.011706 -0.282063
v 0.364060 -0.011706 -0.051708
v 0.317871 -0.011706 0.210242
v 0.114110 -0.011706 0.381218
v -0.151881 -0.011706 0.381218
v -0.355642 -0.011706 0.210242
v -0.401831 -0.011706 -0.051708
v -0.268836 -0.011706 -0.282063
vt 0.890526 0.771658
vt 0.895658 0.686581
vt 0.926220 0.683511
vt 0.912553 0.769446
vt 0.519390 0.852483
vt 0.526205 0.932931
vt 0.487198 0.931962
vt 0.491277 0.851785
vt 0.455025 0.938032
vt 0.468089 0.856159
vt 0.924604 0.389487
vt 0.919134 0.309211
vt 0.958304 0.309211
vt 0.952835 0.389487
vt 0.988310 0.302358
vt 0.974460 0.384548
vt 0.841453 0.592139
vt 0.827603 0.508680
vt 0.857609 0.514491
vt 0.863078 0.596327
vt 0.896779 0.514491
vt 0.891309 0.596327
vt 0.849312 0.223818
vt 0.849312 0.263058
vt 0.824134 0.293118
vt 0.785559 0.299932
vt 0.751637 0.280312
vt 0.738240 0.243438
vt 0.751637 0.206564
vt 0.785559 0.186944
vt 0.824134 0.193758
vt 0.862303 0.771579
vt 0.856498 0.686471
vt 0.841089 0.769245
vt 0.827064 0.683233
vt 0.746590 0.840465
vt 0.785091 0.847286
vt 0.810220 0.877350
vt 0.810220 0.916590
vt 0.785091 0.946645
vt 0.746590 0.953452
vt 0.712733 0.933825
vt 0.699362 0.896950
vt 0.712733 0.860079
vt 0.896779 0.683233
vt 0.912935 0.592139
vt 0.926784 0.677422
vt 0.856498 0.858516
vt 0.895658 0.858626
vt 0.857609 0.683233
vt 0.827603 0.677421
vt 0.958304 0.476095
vt 0.988310 0.469242
vt 0.919134 0.476095
vt 0.487198 0.765053
vt 0.455025 0.771123
vt 0.526205 0.766022
vt 0.926220 0.855556
vt 0.973954 0.799059
vt 0.995024 0.684108
vt 0.996180 0.684330
vt 0.996180 0.803336
vt 0.978068 0.514012
vt 0.978068 0.633174
vt 0.976585 0.633363
vt 0.949370 0.508680
vt 0.975401 0.633780
vt 0.926784 0.525650
vt 0.936695 0.279422
vt 0.942135 0.160763
vt 0.943632 0.160657
vt 0.965485 0.277386
vt 0.944761 0.160314
vt 0.987839 0.279422
vt 0.081328 1.000000
vt 0.126074 0.880698
vt 0.127197 0.881033
vt 0.102781 0.997147
vt 0.128690 0.881182
vt 0.131502 1.000000
vt 0.304727 0.343220
vt 0.303427 0.342468
vt 0.302914 0.341055
vt 0.303427 0.339642
vt 0.304727 0.338890
vt 0.306205 0.339151
vt 0.307170 0.340303
vt 0.307170 0.341807
vt 0.306205 0.342959
vt 0.943172 0.799602
vt 0.993587 0.683675
vt 0.926220 0.782231
vt 0.992542 0.683233
vt 0.026831 0.167203
vt 0.060501 0.072292
vt 0.147107 0.023021
vt 0.246447 0.039737
vt 0.312038 0.114620
vt 0.311894 0.216747
vt 0.248549 0.294762
vt 0.149498 0.313024
vt 0.060878 0.264754
vt 0.203235 0.546971
vt 0.299102 0.531154
vt 0.302914 0.599754
vt 0.211515 0.638725
vt 0.814976 0.514402
vt 0.723968 0.488694
vt 0.723695 0.399565
vt 0.817797 0.395215
vt 0.203235 0.428557
vt 0.299102 0.442964
vt 0.211515 0.338890
vt 0.302914 0.376451
vt 0.455025 0.673861
vt 0.551852 0.662803
vt 0.555660 0.730634
vt 0.463097 0.765053
vt 0.460138 0.555558
vt 0.555660 0.574696
vt 0.584952 0.642250
vt 0.690940 0.640552
vt 0.699362 0.713778
vt 0.605031 0.742380
vt 0.605031 0.526645
vt 0.699362 0.553109
vt 0.723695 0.330409
vt 0.817797 0.302358
vt 0.844644 0.116114
vt 0.902504 0.000000
vt 0.913950 0.012741
vt 0.878777 0.134829
vt 0.933814 0.006238
vt 0.929312 0.132984
vt 0.950775 0.986449
vt 0.968433 0.858626
vt 0.986635 0.859036
vt 1.000000 0.987559
vt 0.914065 0.987559
vt 0.955383 0.864874
vt 0.876301 0.986908
vt 0.860646 0.858626
vt 0.874642 0.864090
vt 0.914065 0.986932
vt 0.827064 0.986932
vt 0.842438 0.858635
vt 0.887848 0.160314
vt 0.918715 0.294809
vt 0.904381 0.299932
vt 0.849311 0.183134
vt 0.936695 0.162825
vt 0.936695 0.292422
vt 0.948075 0.006920
vt 0.967879 0.134829
vt 0.149437 0.600756
vt 0.010373 0.600908
vt 0.010799 0.572367
vt 0.150279 0.544319
vt 0.699362 0.840465
vt 0.700979 0.697809
vt 0.736890 0.693273
vt 0.770541 0.840465
vt 0.765558 0.683233
vt 0.827064 0.811642
vt 0.455025 0.748136
vt 0.437536 0.889337
vt 0.401200 0.889337
vt 0.383174 0.748136
vt 0.373319 0.887038
vt 0.328087 0.752050
vt 0.160454 0.939730
vt 0.204789 0.803994
vt 0.231581 0.800143
vt 0.214453 0.941148
vt 0.267917 0.800143
vt 0.286303 0.941148
vt 0.150279 0.673786
vt 0.015384 0.638614
vt 0.128925 0.725271
vt 0.000000 0.663877
vt 0.601459 0.302358
vt 0.723695 0.343810
vt 0.709771 0.385768
vt 0.584952 0.368492
vt 0.719165 0.442654
vt 0.594347 0.457534
vt 0.127234 0.813871
vt 0.000000 0.798427
vt 0.000000 0.741991
vt 0.127234 0.725271
vt 0.123361 0.880698
vt 0.000883 0.840616
vt 0.699362 0.615238
vt 0.826925 0.600439
vt 0.827603 0.643729
vt 0.705351 0.683233
vt 0.700426 0.526645
vt 0.827603 0.544007
vt 0.160454 0.724768
vt 0.297524 0.724535
vt 0.302914 0.771395
vt 0.177686 0.800143
vt 0.177686 0.638725
vt 0.302914 0.668576
vt 0.723695 0.486676
vt 0.601459 0.526645
vt 0.817797 0.408905
vt 0.919135 0.404719
vt 0.919135 0.462979
vt 0.817797 0.491794
vt 0.353537 0.555558
vt 0.455025 0.583276
vt 0.447929 0.656943
vt 0.334672 0.658560
vt 0.455025 0.718632
vt 0.353537 0.748136
vt 0.741710 0.000000
vt 0.844644 0.018979
vt 0.842205 0.093234
vt 0.738240 0.105646
vt 0.844644 0.150305
vt 0.745361 0.186944
vt 0.639766 0.000000
vt 0.738240 0.039056
vt 0.736482 0.094926
vt 0.633365 0.079930
vt 0.736482 0.169221
vt 0.633365 0.185633
vt 0.819316 0.302358
vt 0.917440 0.329407
vt 0.738240 0.227178
vt 0.639766 0.267650
vt 0.039763 0.946496
vt 0.036200 0.962317
vt 0.009809 0.950132
vt 0.022768 0.939339
vt 0.000000 0.921913
vt 0.016926 0.921008
vt 0.057581 0.942760
vt 0.064445 0.956393
vt 0.067884 0.929877
vt 0.081328 0.935134
vt 0.068231 0.910248
vt 0.081328 0.904857
vt 0.056080 0.896686
vt 0.062066 0.883359
vt 0.038056 0.894104
vt 0.032556 0.880698
vt 0.022593 0.903709
vt 0.008983 0.894491
vt 0.580411 0.812125
vt 0.560252 0.812958
vt 0.576188 0.766383
vt 0.592172 0.777754
vt 0.617382 0.742380
vt 0.623279 0.758993
vt 0.666986 0.748584
vt 0.659178 0.764619
vt 0.699362 0.785688
vt 0.683071 0.792000
vt 0.699362 0.836330
vt 0.682819 0.829745
vt 0.669412 0.873219
vt 0.660968 0.856596
vt 0.621099 0.882690
vt 0.625315 0.863585
vt 0.592542 0.847442
vt 0.577030 0.860311
vt 0.093056 0.521403
vt 0.088180 0.544319
vt 0.024513 0.510626
vt 0.042928 0.495291
vt 0.000000 0.442027
vt 0.023917 0.441201
vt 0.148397 0.510900
vt 0.158763 0.530923
vt 0.183057 0.468697
vt 0.203235 0.476707
vt 0.183266 0.410959
vt 0.203235 0.403457
vt 0.146478 0.368284
vt 0.156315 0.349029
vt 0.090873 0.359226
vt 0.084430 0.338890
vt 0.042470 0.388023
vt 0.023663 0.374204
vt 0.356724 0.428510
vt 0.334672 0.429377
vt 0.364006 0.345966
vt 0.381323 0.358565
vt 0.439136 0.302358
vt 0.445137 0.320814
vt 0.527365 0.315384
vt 0.518307 0.332921
vt 0.584952 0.382524
vt 0.566597 0.389221
vt 0.584952 0.472362
vt 0.566440 0.464783
vt 0.529822 0.539286
vt 0.520367 0.520674
vt 0.442900 0.555558
vt 0.447480 0.534319
vt 0.381882 0.499332
vt 0.364859 0.513564
vt 0.468870 0.276441
vt 0.463529 0.302358
vt 0.370698 0.251821
vt 0.391259 0.234510
vt 0.334672 0.151592
vt 0.361363 0.150654
vt 0.555417 0.260396
vt 0.567264 0.283128
vt 0.610404 0.193885
vt 0.633365 0.203128
vt 0.610566 0.104457
vt 0.633365 0.096219
vt 0.553362 0.037527
vt 0.564801 0.015998
vt 0.466533 0.023003
vt 0.459756 0.000000
vt 0.390707 0.067681
vt 0.369843 0.052140
vt 0.000000 0.169852
vt 0.039510 0.058480
vt 0.140408 0.000000
vt 0.257951 0.018207
vt 0.334672 0.108150
vt 0.127234 0.725271
vt 0.159858 0.728668
vt 0.159858 0.842198
vt 0.128602 0.822266
vt 0.334672 0.227744
vt 0.260418 0.317461
vt 0.144187 0.338890
vt 0.040366 0.282005
vn 0.3371 -0.1693 -0.9261
vn 0.8535 -0.1693 -0.4928
vn 0.9706 -0.1693 0.1711
vn 0.6335 -0.1693 0.7550
vn -0.0000 -0.1693 0.9856
vn -0.6335 -0.1693 0.7550
vn -0.9706 -0.1693 0.1711
vn 0.0000 1.0000 0.0000
vn -0.3371 -0.1693 -0.9261
vn -0.8535 -0.1693 -0.4928
vn 0.0000 -1.0000 -0.0000
vn -0.8530 0.1729 -0.4925
vn -0.3369 0.1729 -0.9255
vn -0.9700 0.1729 0.1710
vn -0.6331 0.1729 0.7545
vn -0.0000 0.1729 0.9849
vn 0.6331 0.1729 0.7545
vn 0.9700 0.1729 0.1710
vn 0.8530 0.1729 -0.4925
vn 0.3369 0.1729 -0.9255
vn 0.3238 0.3221 -0.8896
vn 0.8730 0.3022 -0.3827
vn 0.9536 0.2971 0.0477
vn 0.6109 0.3112 0.7280
vn -0.1164 0.2965 0.9479
vn -0.5313 0.3015 0.7917
vn -0.9327 0.3210 0.1645
vn -0.3809 0.3169 -0.8686
vn -0.7898 0.3166 -0.5253
vn 0.0415 -0.9991 0.0024
vn -0.7667 0.4310 -0.4757
vn -0.3356 0.4304 -0.8379
vn -0.8898 0.4285 0.1569
vn -0.5511 0.4230 0.7193
vn -0.0455 0.4187 0.9070
vn 0.5844 0.4163 0.6965
vn 0.9079 0.3960 0.1376
vn 0.8023 0.4025 -0.4408
vn 0.3093 0.4266 -0.8499
vn -0.7838 0.3370 -0.5217
vn -0.3783 0.3367 -0.8623
vn -0.9279 0.3351 0.1636
vn -0.5277 0.3288 0.7832
vn -0.1127 0.3256 0.9388
vn 0.6078 0.3254 0.7244
vn 0.9437 0.3122 0.1093
vn 0.8444 0.3173 -0.4317
vn 0.3224 0.3342 -0.8857
vn 0.3209 0.3458 -0.8817
vn 0.8325 0.3304 -0.4447
vn 0.9366 0.3260 0.1283
vn 0.6047 0.3390 0.7207
vn -0.0735 0.3409 0.9372
vn -0.5534 0.3441 0.7585
vn -0.9230 0.3487 0.1627
vn -0.3579 0.3490 -0.8661
vn -0.7906 0.3500 -0.5024
vn -0.7957 0.3507 -0.4939
vn -0.3486 0.3496 -0.8696
vn -0.9228 0.3491 0.1627
vn -0.5664 0.3446 0.7487
vn -0.0551 0.3408 0.9385
vn 0.6048 0.3385 0.7208
vn 0.9359 0.3243 0.1375
vn 0.8290 0.3293 -0.4520
vn 0.3209 0.3461 -0.8816
vn 0.3114 0.4133 -0.8557
vn 0.8077 0.3910 -0.4412
vn 0.9129 0.3849 0.1357
vn 0.5881 0.4035 0.7009
vn -0.0509 0.4056 0.9126
vn -0.5513 0.4096 0.7268
vn -0.8960 0.4150 0.1580
vn -0.3404 0.4168 -0.8429
vn -0.7708 0.4174 -0.4812
vn 0.1824 -0.8628 0.4715
vn 0.4346 -0.8567 0.2778
vn 0.4511 -0.8889 -0.0795
vn 0.0338 -0.8164 -0.5765
vn 0.3326 -0.8240 -0.4586
vn -0.3049 -0.8804 -0.3633
vn -0.6502 -0.7582 0.0485
vn -0.6189 -0.7661 0.1734
vn -0.1439 -0.9072 0.3954
vn -0.1295 -0.9255 0.3559
vn -0.5359 -0.8196 0.2028
vn -0.5873 -0.8093 -0.0082
vn -0.2691 -0.9081 -0.3207
vn 0.1984 -0.8870 -0.4170
vn 0.1156 -0.8858 -0.4495
vn 0.3987 -0.9144 -0.0703
vn 0.3033 -0.9077 0.2901
vn 0.2296 -0.9091 0.3477
vn 0.2137 -0.9379 0.2733
vn 0.2322 -0.9377 0.2586
vn 0.3356 -0.9401 -0.0592
vn 0.1208 -0.9255 -0.3590
vn 0.1379 -0.9257 -0.3523
vn -0.2263 -0.9360 -0.2697
vn -0.5129 -0.8581 -0.0235
vn -0.4618 -0.8659 0.1920
vn -0.1107 -0.9462 0.3041
vn -0.1302 -0.9247 0.3577
vn -0.5031 -0.8320 0.2339
vn -0.5695 -0.8205 -0.0494
vn -0.2660 -0.9104 -0.3170
vn 0.1072 -0.9038 -0.4144
vn 0.1839 -0.9047 -0.3844
vn 0.3927 -0.9170 -0.0692
vn 0.2232 -0.9201 0.3218
vn 0.2799 -0.9193 0.2765
vn 0.2434 -0.9398 0.2401
vn 0.1938 -0.9402 0.2801
vn 0.3381 -0.9392 -0.0596
vn 0.1572 -0.9309 -0.3297
vn 0.0922 -0.9303 -0.3550
vn -0.2282 -0.9348 -0.2720
vn -0.4989 -0.8656 -0.0432
vn -0.4422 -0.8730 0.2057
vn -0.1133 -0.9435 0.3114
vn -0.2817 -0.5673 0.7738
vn -0.6966 -0.6658 0.2673
vn -0.4648 -0.8844 -0.0418
vn -0.5116 -0.7239 -0.4627
vn 0.0523 -0.5359 -0.8427
vn 0.4635 -0.7303 -0.5019
vn 0.2956 -0.9539 -0.0521
vn 0.3663 -0.7441 0.5587
vn 0.2118 -0.9540 0.2122
usemtl Bark
s 1
f 118/1/1 119/2/1 120/3/1 121/4/1
f 121/5/2 120/6/2 122/7/2 123/8/2
f 123/8/3 122/7/3 124/9/3 125/10/3
f 125/11/4 124/12/4 126/13/4 127/14/4
f 127/14/5 126/13/5 128/15/5 129/16/5
f 129/17/6 128/18/6 130/19/6 131/20/6
f 131/20/7 130/19/7 132/21/7 133/22/7
f 120/23/8 119/24/8 134/25/8 132/26/8 130/27/8 128/28/8 126/29/8 124/30/8 122/31/8
f 135/32/9 134/33/9 119/2/9 118/1/9
f 133/34/10 132/35/10 134/33/10 135/32/10
f 136/36/11 137/37/11 138/38/11 139/39/11 140/40/11 141/41/11 142/42/11 143/43/11 144/44/11
f 143/45/12 133/22/12 135/46/12 144/47/12
f 144/48/13 135/32/13 118/1/13 136/49/13
f 142/50/14 131/20/14 133/22/14 143/45/14
f 141/51/15 129/17/15 131/20/15 142/50/15
f 140/52/16 127/14/16 129/16/16 141/53/16
f 139/54/17 125/11/17 127/14/17 140/52/17
f 138/55/18 123/8/18 125/10/18 139/56/18
f 137/57/19 121/5/19 123/8/19 138/55/19
f 136/49/20 118/1/20 121/4/20 137/58/20
usemtl Leaves
f 1/59/21 2/60/21 3/61/21 4/62/21
f 4/63/22 3/64/22 5/65/22 6/66/22
f 6/66/23 5/65/23 7/67/23 8/68/23
f 8/69/24 7/70/24 9/71/24 10/72/24
f 10/72/25 9/71/25 11/73/25 12/74/25
f 12/75/26 11/76/26 13/77/26 14/78/26
f 14/78/27 13/77/27 15/79/27 16/80/27
f 3/81/8 2/82/8 17/83/8 15/84/8 13/85/8 11/86/8 9/87/8 7/88/8 5/89/8
f 18/90/28 17/91/28 2/60/28 1/59/28
f 16/92/29 15/93/29 17/91/29 18/90/29
f 19/94/30 20/95/30 21/96/30 22/97/30 23/98/30 24/99/30 25/100/30 26/101/30 27/102/30
f 28/103/31 29/104/31 30/105/31 31/106/31
f 31/107/32 30/108/32 32/109/32 33/110/32
f 34/111/33 35/112/33 29/104/33 28/103/33
f 36/113/34 37/114/34 35/112/34 34/111/34
f 38/115/35 39/116/35 37/117/35 36/118/35
f 40/119/36 41/120/36 39/116/36 38/115/36
f 42/121/37 43/122/37 41/123/37 40/124/37
f 44/125/38 45/126/38 43/122/38 42/121/38
f 33/110/39 32/109/39 45/127/39 44/128/39
f 46/129/40 47/130/40 48/131/40 49/132/40
f 49/132/41 48/131/41 50/133/41 51/134/41
f 52/135/42 53/136/42 47/137/42 46/138/42
f 54/139/43 55/140/43 53/136/43 52/135/43
f 56/141/44 57/142/44 55/143/44 54/144/44
f 58/145/45 59/146/45 57/142/45 56/141/45
f 60/147/46 61/148/46 59/149/46 58/150/46
f 62/151/47 63/152/47 61/148/47 60/147/47
f 51/134/48 50/133/48 63/153/48 62/154/48
f 64/155/49 65/156/49 66/157/49 67/158/49
f 67/159/50 66/160/50 68/161/50 69/162/50
f 69/162/51 68/161/51 70/163/51 71/164/51
f 71/165/52 70/166/52 72/167/52 73/168/52
f 73/168/53 72/167/53 74/169/53 75/170/53
f 75/171/54 74/172/54 76/173/54 77/174/54
f 77/174/55 76/173/55 78/175/55 79/176/55
f 80/177/56 81/178/56 65/156/56 64/155/56
f 79/179/57 78/180/57 81/178/57 80/177/57
f 82/181/58 83/182/58 84/183/58 85/184/58
f 85/184/59 84/183/59 86/185/59 87/186/59
f 88/187/60 89/188/60 83/189/60 82/190/60
f 90/191/61 91/192/61 89/188/61 88/187/61
f 92/193/62 93/194/62 91/195/62 90/196/62
f 94/197/63 95/198/63 93/194/63 92/193/63
f 96/199/64 97/200/64 95/201/64 94/202/64
f 98/203/65 99/204/65 97/200/65 96/199/65
f 87/186/66 86/185/66 99/205/66 98/206/66
f 100/207/67 101/208/67 102/209/67 103/210/67
f 103/211/68 102/212/68 104/213/68 105/214/68
f 105/214/69 104/213/69 106/215/69 107/216/69
f 107/217/70 106/218/70 108/219/70 109/220/70
f 109/220/71 108/219/71 110/221/71 111/222/71
f 111/223/72 110/224/72 112/225/72 113/226/72
f 113/226/73 112/225/73 114/227/73 115/228/73
f 116/229/74 117/230/74 101/208/74 100/207/74
f 115/228/75 114/227/75 117/231/75 116/232/75
f 47/233/76 16/234/76 18/235/76 48/236/76
f 48/236/77 18/235/77 1/237/77 50/238/77
f 53/239/78 14/240/78 16/234/78 47/233/78
f 55/241/79 12/242/79 14/240/79 53/239/79
f 57/243/80 10/244/80 12/242/80 55/241/80
f 59/245/81 8/246/81 10/244/81 57/243/81
f 61/247/82 6/248/82 8/246/82 59/245/82
f 63/249/83 4/250/83 6/248/83 61/247/83
f 50/238/84 1/237/84 4/250/84 63/249/84
f 65/251/85 51/252/85 62/253/85 66/254/85
f 66/254/86 62/253/86 60/255/86 68/256/86
f 68/256/87 60/255/87 58/257/87 70/258/87
f 70/258/88 58/257/88 56/259/88 72/260/88
f 72/260/89 56/259/89 54/261/89 74/262/89
f 74/262/90 54/261/90 52/263/90 76/264/90
f 76/264/91 52/263/91 46/265/91 78/266/91
f 81/267/92 49/268/92 51/252/92 65/251/92
f 78/266/93 46/265/93 49/268/93 81/267/93
f 83/269/94 79/270/94 80/271/94 84/272/94
f 84/272/95 80/271/95 64/273/95 86/274/95
f 89/275/96 77/276/96 79/270/96 83/269/96
f 91/277/97 75/278/97 77/276/97 89/275/97
f 93/279/98 73/280/98 75/278/98 91/277/98
f 95/281/99 71/282/99 73/280/99 93/279/99
f 97/283/100 69/284/100 71/282/100 95/281/100
f 99/285/101 67/286/101 69/284/101 97/283/101
f 86/274/102 64/273/102 67/286/102 99/285/102
f 101/287/103 87/288/103 98/289/103 102/290/103
f 102/290/104 98/289/104 96/291/104 104/292/104
f 104/292/105 96/291/105 94/293/105 106/294/105
f 106/294/106 94/293/106 92/295/106 108/296/106
f 108/296/107 92/295/107 90/297/107 110/298/107
f 110/298/108 90/297/108 88/299/108 112/300/108
f 112/300/109 88/299/109 82/301/109 114/302/109
f 117/303/110 85/304/110 87/288/110 101/287/110
f 114/302/111 82/301/111 85/304/111 117/303/111
f 29/305/112 115/306/112 116/307/112 30/308/112
f 30/308/113 116/307/113 100/309/113 32/310/113
f 35/311/114 113/312/114 115/306/114 29/305/114
f 37/313/115 111/314/115 113/312/115 35/311/115
f 39/315/116 109/316/116 111/314/116 37/313/116
f 41/317/117 107/318/117 109/316/117 39/315/117
f 43/319/118 105/320/118 107/318/118 41/317/118
f 45/321/119 103/322/119 105/320/119 43/319/119
f 32/310/120 100/309/120 103/322/120 45/321/120
f 19/94/121 33/323/121 44/324/121 20/95/121
f 20/95/122 44/324/122 42/325/122 21/96/122
f 21/96/123 42/325/123 40/326/123 22/97/123
f 22/97/124 40/326/124 38/327/124 23/98/124
f 23/328/125 38/329/125 36/330/125 24/331/125
f 24/99/126 36/332/126 34/333/126 25/100/126
f 25/100/127 34/333/127 28/334/127 26/101/127
f 27/102/128 31/335/128 33/323/128 19/94/128
f 26/101/129 28/334/129 31/335/129 27/102/129
